<mxfile host="app.diagrams.net" modified="2022-07-02T13:52:49.500Z" agent="5.0 (Macintosh; Intel Mac OS X 10_15_7) AppleWebKit/537.36 (KHTML, like Gecko) Chrome/103.0.5060.53 Safari/537.36" etag="fKMU8UYDRGf77IinIAhV" version="20.0.4" type="github">
  <diagram name="Page-1" id="74b105a0-9070-1c63-61bc-23e55f88626e">
    <mxGraphModel dx="2194" dy="1238" grid="1" gridSize="10" guides="1" tooltips="1" connect="1" arrows="1" fold="1" page="1" pageScale="1.5" pageWidth="1169" pageHeight="826" background="none" math="0" shadow="0">
      <root>
        <mxCell id="0" style=";html=1;" />
        <mxCell id="1" style=";html=1;" parent="0" />
        <mxCell id="10b056a9c633e61c-30" value="Basic Architecture&amp;nbsp;" style="text;strokeColor=none;fillColor=none;html=1;fontSize=24;fontStyle=1;verticalAlign=middle;align=center;" parent="1" vertex="1">
          <mxGeometry x="80" y="40" width="1590" height="40" as="geometry" />
        </mxCell>
        <mxCell id="Wag0g2ZPllttMmGWGg5M-1" value="" style="outlineConnect=0;dashed=0;verticalLabelPosition=bottom;verticalAlign=top;align=center;html=1;shape=mxgraph.aws3.android;fillColor=#8CC64F;gradientColor=none;" vertex="1" parent="1">
          <mxGeometry x="850" y="380" width="73.5" height="84" as="geometry" />
        </mxCell>
        <mxCell id="Wag0g2ZPllttMmGWGg5M-3" value="" style="outlineConnect=0;dashed=0;verticalLabelPosition=bottom;verticalAlign=top;align=center;html=1;shape=mxgraph.aws3.android;fillColor=#8CC64F;gradientColor=none;" vertex="1" parent="1">
          <mxGeometry x="260" y="370" width="73.5" height="84" as="geometry" />
        </mxCell>
        <mxCell id="Wag0g2ZPllttMmGWGg5M-8" value="" style="outlineConnect=0;dashed=0;verticalLabelPosition=bottom;verticalAlign=top;align=center;html=1;shape=mxgraph.aws3.queue;fillColor=#D9A741;gradientColor=none;" vertex="1" parent="1">
          <mxGeometry x="540" y="388" width="73.5" height="48" as="geometry" />
        </mxCell>
        <mxCell id="Wag0g2ZPllttMmGWGg5M-9" value="" style="shape=image;html=1;verticalAlign=top;verticalLabelPosition=bottom;labelBackgroundColor=#ffffff;imageAspect=0;aspect=fixed;image=https://cdn1.iconfinder.com/data/icons/unicons-line-vol-5/24/react-128.png" vertex="1" parent="1">
          <mxGeometry x="830" y="606" width="128" height="128" as="geometry" />
        </mxCell>
        <mxCell id="Wag0g2ZPllttMmGWGg5M-12" value="" style="edgeStyle=none;html=1;strokeColor=#808080;endArrow=block;endSize=10;dashed=0;verticalAlign=bottom;strokeWidth=2;rounded=0;" edge="1" parent="1">
          <mxGeometry width="160" relative="1" as="geometry">
            <mxPoint x="350" y="411.29" as="sourcePoint" />
            <mxPoint x="510" y="411.29" as="targetPoint" />
          </mxGeometry>
        </mxCell>
        <mxCell id="Wag0g2ZPllttMmGWGg5M-13" value="" style="edgeStyle=none;html=1;strokeColor=#808080;endArrow=block;endSize=10;dashed=0;verticalAlign=bottom;strokeWidth=2;rounded=0;" edge="1" parent="1">
          <mxGeometry width="160" relative="1" as="geometry">
            <mxPoint x="650" y="411.29" as="sourcePoint" />
            <mxPoint x="810" y="411.29" as="targetPoint" />
          </mxGeometry>
        </mxCell>
        <mxCell id="Wag0g2ZPllttMmGWGg5M-15" value="Nodejs Publisher" style="text;html=1;align=center;verticalAlign=middle;resizable=0;points=[];autosize=1;strokeColor=none;fillColor=none;" vertex="1" parent="1">
          <mxGeometry x="215" y="325" width="110" height="30" as="geometry" />
        </mxCell>
        <mxCell id="Wag0g2ZPllttMmGWGg5M-16" value="Nodejs Subscriber" style="text;html=1;align=center;verticalAlign=middle;resizable=0;points=[];autosize=1;strokeColor=none;fillColor=none;" vertex="1" parent="1">
          <mxGeometry x="800" y="315" width="120" height="30" as="geometry" />
        </mxCell>
        <mxCell id="Wag0g2ZPllttMmGWGg5M-17" value="Random Mesages" style="text;html=1;align=center;verticalAlign=middle;resizable=0;points=[];autosize=1;strokeColor=none;fillColor=none;" vertex="1" parent="1">
          <mxGeometry x="350" y="375" width="120" height="30" as="geometry" />
        </mxCell>
        <mxCell id="Wag0g2ZPllttMmGWGg5M-18" value="Filtered Mesages" style="text;html=1;align=center;verticalAlign=middle;resizable=0;points=[];autosize=1;strokeColor=none;fillColor=none;" vertex="1" parent="1">
          <mxGeometry x="640" y="365" width="120" height="30" as="geometry" />
        </mxCell>
        <mxCell id="Wag0g2ZPllttMmGWGg5M-19" value="React Js client" style="text;html=1;align=center;verticalAlign=middle;resizable=0;points=[];autosize=1;strokeColor=none;fillColor=none;" vertex="1" parent="1">
          <mxGeometry x="835" y="740" width="100" height="30" as="geometry" />
        </mxCell>
        <mxCell id="Wag0g2ZPllttMmGWGg5M-20" value="socket.io" style="rounded=1;whiteSpace=wrap;html=1;" vertex="1" parent="1">
          <mxGeometry x="906" y="654" width="120" height="30" as="geometry" />
        </mxCell>
        <mxCell id="Wag0g2ZPllttMmGWGg5M-21" value="socket.io" style="rounded=1;whiteSpace=wrap;html=1;" vertex="1" parent="1">
          <mxGeometry x="909" y="412" width="120" height="30" as="geometry" />
        </mxCell>
        <mxCell id="Wag0g2ZPllttMmGWGg5M-22" value="" style="endArrow=classic;startArrow=classic;html=1;rounded=0;" edge="1" parent="1">
          <mxGeometry width="50" height="50" relative="1" as="geometry">
            <mxPoint x="970" y="650" as="sourcePoint" />
            <mxPoint x="970" y="450" as="targetPoint" />
          </mxGeometry>
        </mxCell>
      </root>
    </mxGraphModel>
  </diagram>
</mxfile>
